<svg width="333" height="934" fill="none" xmlns="http://www.w3.org/2000/svg"><path fill-rule="evenodd" clip-rule="evenodd" d="M.999 0V382.052h.003a77.511 77.511 0 0 0 155.02-.78h-.156V190.246h.158A67.513 67.513 0 0 1 291.047 190h-.048v726.929l-23.285-23.284a5 5 0 1 0-7.071 7.071l31.82 31.82a5.001 5.001 0 0 0 7.071 0l31.82-31.82a5 5 0 0 0 0-7.071 5 5 0 0 0-7.071 0l-23.284 23.284V190.246h.048A77.512 77.512 0 0 0 146.024 190h-.158v191.806h.154a67.512 67.512 0 0 1-135.021-.534V0h-10Z" fill="#090907"/></svg>